<?xml version="1.0" encoding="UTF-8" standalone="no"?>
<!-- Uploaded to: SVG Repo, www.svgrepo.com, Generator: SVG Repo Mixer Tools -->

<svg
   fill="#000000"
   height="512"
   width="512"
   version="1.1"
   id="Capa_1"
   viewBox="0 0 320 320"
   xml:space="preserve"
   xmlns="http://www.w3.org/2000/svg"
   xmlns:svg="http://www.w3.org/2000/svg">
   <defs
      id="defs1" />
   <g
      id="_x31_1-DSLR_Camera"
      transform="matrix(0.6766846,0,0,0.6766846,56.025043,56.025043)">
      <path
         d="M 284.909,66.146 H 203.564 L 187.138,38.551 C 185.531,35.853 182.624,34.2 179.484,34.2 h -51.662 c -3.14,0 -6.048,1.653 -7.654,4.351 L 103.742,66.146 H 77.049 v -6.082 c 0,-4.919 -3.988,-8.907 -8.907,-8.907 H 35.185 c -4.92,0 -8.907,3.988 -8.907,8.907 v 6.082 h -3.88 C 10.027,66.146 0,76.174 0,88.543 v 162.166 c 0,12.37 10.027,22.398 22.397,22.398 h 262.512 c 12.37,0 22.398,-10.028 22.398,-22.398 V 88.543 C 307.308,76.174 297.279,66.146 284.909,66.146 Z M 153.653,233.379 c -35.21,0 -63.753,-28.543 -63.753,-63.754 0,-35.209 28.543,-63.753 63.753,-63.753 35.21,0 63.753,28.544 63.753,63.753 0,35.211 -28.543,63.754 -63.753,63.754 z M 270.935,112.322 h -27.91 c -4.919,0 -8.907,-3.988 -8.907,-8.908 0,-4.92 3.988,-8.908 8.907,-8.908 h 27.91 c 4.921,0 8.908,3.988 8.908,8.908 0,4.92 -3.988,8.908 -8.908,8.908 z"
         id="path1" />
      <circle
         cx="153.653"
         cy="169.625"
         r="44.537998"
         id="circle1" />
   </g>
</svg>